<!-- filename: asset-power-panel.svg -->
<svg width="1200" height="800" viewBox="0 0 1200 800" xmlns="http://www.w3.org/2000/svg">
  <defs>
    <linearGradient id="bgWall4" x1="0" y1="0" x2="0" y2="1">
      <stop offset="0" stop-color="#30353c"/>
      <stop offset="0.55" stop-color="#1f242b"/>
      <stop offset="1" stop-color="#141920"/>
    </linearGradient>

    <linearGradient id="floor4" x1="0" y1="0" x2="1" y2="0">
      <stop offset="0" stop-color="#141920"/>
      <stop offset="0.5" stop-color="#10151b"/>
      <stop offset="1" stop-color="#0d1117"/>
    </linearGradient>

    <radialGradient id="vignette4" cx="50%" cy="45%" r="78%">
      <stop offset="0" stop-color="#000000" stop-opacity="0"/>
      <stop offset="0.72" stop-color="#000000" stop-opacity="0.14"/>
      <stop offset="1" stop-color="#000000" stop-opacity="0.45"/>
    </radialGradient>

    <linearGradient id="cabinet4" x1="0" y1="0" x2="1" y2="1">
      <stop offset="0" stop-color="#6a737d"/>
      <stop offset="0.3" stop-color="#3a434d"/>
      <stop offset="0.7" stop-color="#2b333c"/>
      <stop offset="1" stop-color="#7a848f"/>
    </linearGradient>

    <linearGradient id="doorInner4" x1="0" y1="0" x2="1" y2="0">
      <stop offset="0" stop-color="#0f151c"/>
      <stop offset="0.55" stop-color="#1a2027"/>
      <stop offset="1" stop-color="#0b1016"/>
    </linearGradient>

    <linearGradient id="edgeHighlight4" x1="0" y1="0" x2="1" y2="0">
      <stop offset="0" stop-color="#ffffff" stop-opacity="0.10"/>
      <stop offset="0.18" stop-color="#ffffff" stop-opacity="0.02"/>
      <stop offset="1" stop-color="#ffffff" stop-opacity="0"/>
    </linearGradient>

    <linearGradient id="vent4" x1="0" y1="0" x2="0" y2="1">
      <stop offset="0" stop-color="#0c1117"/>
      <stop offset="1" stop-color="#1a2027"/>
    </linearGradient>

    <pattern id="grain4" width="140" height="140" patternUnits="userSpaceOnUse">
      <rect width="140" height="140" fill="transparent"/>
      <circle cx="10" cy="18" r="1.0" fill="#ffffff" opacity="0.04"/>
      <circle cx="28" cy="35" r="0.9" fill="#ffffff" opacity="0.035"/>
      <circle cx="50" cy="22" r="1.1" fill="#ffffff" opacity="0.03"/>
      <circle cx="73" cy="40" r="0.8" fill="#ffffff" opacity="0.03"/>
      <circle cx="96" cy="19" r="1.0" fill="#ffffff" opacity="0.03"/>
      <circle cx="122" cy="36" r="0.9" fill="#ffffff" opacity="0.03"/>
      <circle cx="18" cy="64" r="0.9" fill="#ffffff" opacity="0.03"/>
      <circle cx="41" cy="82" r="1.2" fill="#ffffff" opacity="0.035"/>
      <circle cx="68" cy="70" r="0.8" fill="#ffffff" opacity="0.03"/>
      <circle cx="92" cy="94" r="1.0" fill="#ffffff" opacity="0.03"/>
      <circle cx="116" cy="78" r="1.2" fill="#ffffff" opacity="0.03"/>
      <circle cx="130" cy="102" r="0.9" fill="#ffffff" opacity="0.03"/>
      <circle cx="12" cy="122" r="0.8" fill="#ffffff" opacity="0.03"/>
      <circle cx="36" cy="128" r="1.1" fill="#ffffff" opacity="0.03"/>
      <circle cx="62" cy="118" r="0.9" fill="#ffffff" opacity="0.03"/>
      <circle cx="88" cy="126" r="1.2" fill="#ffffff" opacity="0.035"/>
      <circle cx="110" cy="120" r="0.8" fill="#ffffff" opacity="0.03"/>
      <circle cx="128" cy="132" r="1.0" fill="#ffffff" opacity="0.03"/>
      <circle cx="22" cy="10" r="0.7" fill="#000000" opacity="0.035"/>
      <circle cx="66" cy="52" r="0.8" fill="#000000" opacity="0.03"/>
      <circle cx="102" cy="58" r="0.7" fill="#000000" opacity="0.03"/>
      <circle cx="54" cy="104" r="0.8" fill="#000000" opacity="0.03"/>
      <circle cx="118" cy="110" r="0.7" fill="#000000" opacity="0.03"/>
    </pattern>

    <linearGradient id="overlayBar4" x1="0" y1="0" x2="0" y2="1">
      <stop offset="0" stop-color="#000000" stop-opacity="0.55"/>
      <stop offset="1" stop-color="#000000" stop-opacity="0.72"/>
    </linearGradient>
  </defs>

  <!-- Background -->
  <rect x="0" y="0" width="1200" height="800" fill="url(#bgWall4)"/>
  <rect x="0" y="540" width="1200" height="260" fill="url(#floor4)"/>
  <path d="M0 540 L1200 540" stroke="#000000" stroke-width="2" opacity="0.45"/>

  <!-- Conduit lines on wall -->
  <g opacity="0.55">
    <path d="M80 210 C220 180, 320 160, 450 150" fill="none" stroke="#141a21" stroke-width="10" stroke-linecap="round"/>
    <path d="M450 150 C520 146, 610 152, 690 170" fill="none" stroke="#141a21" stroke-width="10" stroke-linecap="round"/>
    <path d="M210 480 C220 420, 260 360, 330 330" fill="none" stroke="#0f151c" stroke-width="8" stroke-linecap="round"/>
    <path d="M330 330 C380 310, 470 300, 560 305" fill="none" stroke="#0f151c" stroke-width="8" stroke-linecap="round"/>
    <path d="M940 240 C980 220, 1040 210, 1120 220" fill="none" stroke="#0f151c" stroke-width="8" stroke-linecap="round"/>
  </g>

  <!-- Cabinet shadow -->
  <ellipse cx="650" cy="610" rx="270" ry="58" fill="#000000" opacity="0.35"/>
  <ellipse cx="650" cy="622" rx="220" ry="46" fill="#000000" opacity="0.20"/>

  <!-- Power panel cabinet with door slightly open (impression) -->
  <g>
    <!-- Rear cavity (seen through open door) -->
    <polygon points="520,205 810,180 835,650 545,678" fill="url(#doorInner4)" opacity="0.98"/>
    <!-- Breaker rows hint -->
    <g opacity="0.55">
      <polygon points="575,260 775,242 782,272 582,290" fill="#0b1016"/>
      <polygon points="580,302 780,284 787,314 587,332" fill="#0b1016"/>
      <polygon points="585,344 785,326 792,356 592,374" fill="#0b1016"/>
      <polygon points="590,386 790,368 797,398 597,416" fill="#0b1016"/>
      <polygon points="595,428 795,410 802,440 602,458" fill="#0b1016"/>
      <polygon points="600,470 800,452 807,482 607,500" fill="#0b1016"/>
      <polygon points="605,512 805,494 812,524 612,542" fill="#0b1016"/>
      <polygon points="610,554 810,536 817,566 617,584" fill="#0b1016"/>
    </g>
    <g opacity="0.40">
      <circle cx="610" cy="274" r="4" fill="#dfe5ea"/>
      <circle cx="626" cy="273" r="4" fill="#dfe5ea"/>
      <circle cx="612" cy="316" r="4" fill="#dfe5ea"/>
      <circle cx="628" cy="315" r="4" fill="#dfe5ea"/>
      <circle cx="614" cy="358" r="4" fill="#dfe5ea"/>
      <circle cx="630" cy="357" r="4" fill="#dfe5ea"/>
      <circle cx="616" cy="400" r="4" fill="#dfe5ea"/>
      <circle cx="632" cy="399" r="4" fill="#dfe5ea"/>
      <circle cx="618" cy="442" r="4" fill="#dfe5ea"/>
      <circle cx="634" cy="441" r="4" fill="#dfe5ea"/>
    </g>

    <!-- Cabinet body -->
    <polygon points="460,190 800,160 830,675 490,708" fill="url(#cabinet4)" opacity="0.99"/>
    <polygon points="490,708 830,675 840,695 500,730" fill="#000000" opacity="0.22"/>

    <!-- Door (slightly open) -->
    <polygon points="455,190 770,162 792,660 477,692" fill="#2a323b" opacity="0.92"/>
    <polygon points="477,692 792,660 800,675 485,710" fill="#000000" opacity="0.22"/>

    <!-- Door edge highlight -->
    <polygon points="455,190 770,162 772,190 457,218" fill="url(#edgeHighlight4)" opacity="0.9"/>
    <polygon points="770,162 800,160 830,675 792,660" fill="#000000" opacity="0.18"/>

    <!-- Handle/lock -->
    <polygon points="725,420 754,417 762,510 733,513" fill="#0f151c" opacity="0.85"/>
    <circle cx="748" cy="468" r="10" fill="#1a2027" opacity="0.85"/>
    <circle cx="748" cy="468" r="4" fill="#dfe5ea" opacity="0.18"/>

    <!-- Vents on door -->
    <g opacity="0.75">
      <polygon points="515,585 710,566 714,584 519,603" fill="url(#vent4)"/>
      <polygon points="520,610 715,591 719,609 524,628" fill="url(#vent4)"/>
      <polygon points="525,635 720,616 724,634 529,653" fill="url(#vent4)"/>
    </g>

    <!-- Hazard triangle sign -->
    <g>
      <polygon points="520,240 595,232 610,300 535,308" fill="#f2c400" opacity="0.95"/>
      <polygon points="536,252 587,246 597,292 546,298" fill="#000000" opacity="0.12"/>
      <polygon points="558,248 590,292 540,298" fill="none" stroke="#1b1b1b" stroke-width="3" opacity="0.7"/>
      <text x="563" y="286" font-family="Arial, sans-serif" font-size="18" fill="#1b1b1b" opacity="0.75">!</text>
    </g>
  </g>

  <!-- Top-left label -->
  <g>
    <rect x="22" y="18" width="190" height="34" rx="8" fill="#000000" opacity="0.45"/>
    <text x="34" y="41" font-family="Arial, sans-serif" font-size="16" fill="#ffffff" opacity="0.92" letter-spacing="0.5">DEMO PHOTO (SVG)</text>
  </g>

  <!-- Grain overlay -->
  <rect x="0" y="0" width="1200" height="800" fill="url(#grain4)" opacity="0.9"/>

  <!-- Vignette -->
  <rect x="0" y="0" width="1200" height="800" fill="url(#vignette4)"/>

  <!-- Bottom overlay strip -->
  <g>
    <rect x="0" y="720" width="1200" height="80" fill="url(#overlayBar4)"/>
    <text x="38" y="768" font-family="Arial, sans-serif" font-size="22" fill="#ffffff" opacity="0.92">Asset Tag: ASSET-48213</text>
    <text x="420" y="768" font-family="Arial, sans-serif" font-size="22" fill="#ffffff" opacity="0.88">Location: Demo Location</text>
    <text x="840" y="768" font-family="Arial, sans-serif" font-size="22" fill="#ffffff" opacity="0.88">Timestamp: 2026-02-18 14:38</text>
  </g>
</svg>
